<mxfile host="app.diagrams.net" modified="2024-01-28T14:51:02.006Z" agent="Mozilla/5.0 (Macintosh; Intel Mac OS X 10_15_7) AppleWebKit/605.1.15 (KHTML, like Gecko) Version/17.1 Safari/605.1.15" etag="Bro_rYJVOIjQ22szgdRl" version="23.0.2" type="github">
  <diagram name="Page-1" id="fH8Dj7DTcOkFTHuIgYKk">
    <mxGraphModel dx="1092" dy="1971" grid="1" gridSize="10" guides="1" tooltips="1" connect="1" arrows="1" fold="1" page="1" pageScale="1" pageWidth="827" pageHeight="1169" math="0" shadow="0">
      <root>
        <mxCell id="0" />
        <mxCell id="1" parent="0" />
        <mxCell id="TIo4OESzISVmzK5PZU8b-4" style="edgeStyle=orthogonalEdgeStyle;rounded=0;orthogonalLoop=1;jettySize=auto;html=1;exitX=1;exitY=0.5;exitDx=0;exitDy=0;entryX=0;entryY=0.5;entryDx=0;entryDy=0;endArrow=none;endFill=0;" edge="1" parent="1" source="TIo4OESzISVmzK5PZU8b-1" target="TIo4OESzISVmzK5PZU8b-3">
          <mxGeometry relative="1" as="geometry" />
        </mxCell>
        <mxCell id="TIo4OESzISVmzK5PZU8b-27" value="0,n" style="edgeLabel;html=1;align=center;verticalAlign=middle;resizable=0;points=[];" vertex="1" connectable="0" parent="TIo4OESzISVmzK5PZU8b-4">
          <mxGeometry x="-0.0233" y="-1" relative="1" as="geometry">
            <mxPoint as="offset" />
          </mxGeometry>
        </mxCell>
        <mxCell id="TIo4OESzISVmzK5PZU8b-8" style="edgeStyle=orthogonalEdgeStyle;rounded=0;orthogonalLoop=1;jettySize=auto;html=1;entryX=0.5;entryY=0;entryDx=0;entryDy=0;endArrow=none;endFill=0;" edge="1" parent="1" source="TIo4OESzISVmzK5PZU8b-1" target="TIo4OESzISVmzK5PZU8b-7">
          <mxGeometry relative="1" as="geometry" />
        </mxCell>
        <mxCell id="TIo4OESzISVmzK5PZU8b-31" value="1,n" style="edgeLabel;html=1;align=center;verticalAlign=middle;resizable=0;points=[];" vertex="1" connectable="0" parent="TIo4OESzISVmzK5PZU8b-8">
          <mxGeometry x="-0.0643" relative="1" as="geometry">
            <mxPoint as="offset" />
          </mxGeometry>
        </mxCell>
        <mxCell id="TIo4OESzISVmzK5PZU8b-1" value="Recette" style="swimlane;whiteSpace=wrap;html=1;" vertex="1" parent="1">
          <mxGeometry x="50" y="60" width="200" height="200" as="geometry" />
        </mxCell>
        <mxCell id="TIo4OESzISVmzK5PZU8b-19" value="titre" style="text;html=1;align=left;verticalAlign=middle;resizable=0;points=[];autosize=1;strokeColor=none;fillColor=none;" vertex="1" parent="TIo4OESzISVmzK5PZU8b-1">
          <mxGeometry x="10" y="60" width="40" height="30" as="geometry" />
        </mxCell>
        <mxCell id="TIo4OESzISVmzK5PZU8b-20" value="slug" style="text;html=1;align=left;verticalAlign=middle;resizable=0;points=[];autosize=1;strokeColor=none;fillColor=none;" vertex="1" parent="TIo4OESzISVmzK5PZU8b-1">
          <mxGeometry x="10" y="90" width="50" height="30" as="geometry" />
        </mxCell>
        <mxCell id="TIo4OESzISVmzK5PZU8b-21" value="Date" style="text;html=1;align=left;verticalAlign=middle;resizable=0;points=[];autosize=1;strokeColor=none;fillColor=none;" vertex="1" parent="TIo4OESzISVmzK5PZU8b-1">
          <mxGeometry x="10" y="120" width="50" height="30" as="geometry" />
        </mxCell>
        <mxCell id="TIo4OESzISVmzK5PZU8b-22" value="Durée" style="text;html=1;align=left;verticalAlign=middle;resizable=0;points=[];autosize=1;strokeColor=none;fillColor=none;" vertex="1" parent="TIo4OESzISVmzK5PZU8b-1">
          <mxGeometry x="10" y="150" width="60" height="30" as="geometry" />
        </mxCell>
        <mxCell id="TIo4OESzISVmzK5PZU8b-33" value="id" style="text;html=1;align=left;verticalAlign=middle;resizable=0;points=[];autosize=1;strokeColor=none;fillColor=none;" vertex="1" parent="TIo4OESzISVmzK5PZU8b-1">
          <mxGeometry x="10" y="30" width="30" height="30" as="geometry" />
        </mxCell>
        <mxCell id="TIo4OESzISVmzK5PZU8b-2" value="Categorie" style="swimlane;whiteSpace=wrap;html=1;startSize=23;" vertex="1" parent="1">
          <mxGeometry x="530" y="60" width="200" height="200" as="geometry" />
        </mxCell>
        <mxCell id="TIo4OESzISVmzK5PZU8b-26" value="titre" style="text;html=1;align=left;verticalAlign=middle;resizable=0;points=[];autosize=1;strokeColor=none;fillColor=none;" vertex="1" parent="TIo4OESzISVmzK5PZU8b-2">
          <mxGeometry x="20" y="50" width="40" height="30" as="geometry" />
        </mxCell>
        <mxCell id="TIo4OESzISVmzK5PZU8b-35" value="id" style="text;html=1;align=left;verticalAlign=middle;resizable=0;points=[];autosize=1;strokeColor=none;fillColor=none;" vertex="1" parent="TIo4OESzISVmzK5PZU8b-2">
          <mxGeometry x="20" y="30" width="30" height="30" as="geometry" />
        </mxCell>
        <mxCell id="TIo4OESzISVmzK5PZU8b-5" style="edgeStyle=orthogonalEdgeStyle;rounded=0;orthogonalLoop=1;jettySize=auto;html=1;exitX=1;exitY=0.5;exitDx=0;exitDy=0;entryX=0;entryY=0.5;entryDx=0;entryDy=0;endArrow=none;endFill=0;" edge="1" parent="1" source="TIo4OESzISVmzK5PZU8b-3" target="TIo4OESzISVmzK5PZU8b-2">
          <mxGeometry relative="1" as="geometry" />
        </mxCell>
        <mxCell id="TIo4OESzISVmzK5PZU8b-28" value="0,n" style="edgeLabel;html=1;align=center;verticalAlign=middle;resizable=0;points=[];" vertex="1" connectable="0" parent="TIo4OESzISVmzK5PZU8b-5">
          <mxGeometry x="-0.0118" y="1" relative="1" as="geometry">
            <mxPoint as="offset" />
          </mxGeometry>
        </mxCell>
        <mxCell id="TIo4OESzISVmzK5PZU8b-3" value="Appartient" style="swimlane;whiteSpace=wrap;html=1;startSize=40;rounded=1;" vertex="1" parent="1">
          <mxGeometry x="330" y="105" width="130" height="110" as="geometry" />
        </mxCell>
        <mxCell id="TIo4OESzISVmzK5PZU8b-6" value="Ingredient" style="swimlane;whiteSpace=wrap;html=1;" vertex="1" parent="1">
          <mxGeometry x="50" y="450" width="200" height="200" as="geometry" />
        </mxCell>
        <mxCell id="TIo4OESzISVmzK5PZU8b-23" value="nom" style="text;html=1;align=left;verticalAlign=middle;resizable=0;points=[];autosize=1;strokeColor=none;fillColor=none;" vertex="1" parent="TIo4OESzISVmzK5PZU8b-6">
          <mxGeometry x="10" y="60" width="50" height="30" as="geometry" />
        </mxCell>
        <mxCell id="TIo4OESzISVmzK5PZU8b-36" value="id" style="text;html=1;align=left;verticalAlign=middle;resizable=0;points=[];autosize=1;strokeColor=none;fillColor=none;" vertex="1" parent="TIo4OESzISVmzK5PZU8b-6">
          <mxGeometry x="10" y="40" width="30" height="30" as="geometry" />
        </mxCell>
        <mxCell id="TIo4OESzISVmzK5PZU8b-9" style="edgeStyle=orthogonalEdgeStyle;rounded=0;orthogonalLoop=1;jettySize=auto;html=1;entryX=0.5;entryY=0;entryDx=0;entryDy=0;endArrow=none;endFill=0;" edge="1" parent="1" source="TIo4OESzISVmzK5PZU8b-7" target="TIo4OESzISVmzK5PZU8b-6">
          <mxGeometry relative="1" as="geometry" />
        </mxCell>
        <mxCell id="TIo4OESzISVmzK5PZU8b-32" value="0,n" style="edgeLabel;html=1;align=center;verticalAlign=middle;resizable=0;points=[];" vertex="1" connectable="0" parent="TIo4OESzISVmzK5PZU8b-9">
          <mxGeometry x="0.0643" y="-1" relative="1" as="geometry">
            <mxPoint as="offset" />
          </mxGeometry>
        </mxCell>
        <mxCell id="TIo4OESzISVmzK5PZU8b-7" value="est composée de" style="swimlane;whiteSpace=wrap;html=1;startSize=40;rounded=1;" vertex="1" parent="1">
          <mxGeometry x="85" y="300" width="130" height="110" as="geometry" />
        </mxCell>
        <mxCell id="TIo4OESzISVmzK5PZU8b-24" value="quantité" style="text;html=1;align=left;verticalAlign=middle;resizable=0;points=[];autosize=1;strokeColor=none;fillColor=none;" vertex="1" parent="TIo4OESzISVmzK5PZU8b-7">
          <mxGeometry x="15" y="40" width="70" height="30" as="geometry" />
        </mxCell>
        <mxCell id="TIo4OESzISVmzK5PZU8b-25" value="unité" style="text;html=1;align=left;verticalAlign=middle;resizable=0;points=[];autosize=1;strokeColor=none;fillColor=none;" vertex="1" parent="TIo4OESzISVmzK5PZU8b-7">
          <mxGeometry x="15" y="60" width="50" height="30" as="geometry" />
        </mxCell>
        <mxCell id="TIo4OESzISVmzK5PZU8b-12" style="edgeStyle=orthogonalEdgeStyle;rounded=0;orthogonalLoop=1;jettySize=auto;html=1;entryX=0.5;entryY=0;entryDx=0;entryDy=0;endArrow=none;endFill=0;" edge="1" parent="1" source="TIo4OESzISVmzK5PZU8b-10" target="TIo4OESzISVmzK5PZU8b-11">
          <mxGeometry relative="1" as="geometry" />
        </mxCell>
        <mxCell id="TIo4OESzISVmzK5PZU8b-29" value="0,n" style="edgeLabel;html=1;align=center;verticalAlign=middle;resizable=0;points=[];" vertex="1" connectable="0" parent="TIo4OESzISVmzK5PZU8b-12">
          <mxGeometry x="-0.0786" y="2" relative="1" as="geometry">
            <mxPoint as="offset" />
          </mxGeometry>
        </mxCell>
        <mxCell id="TIo4OESzISVmzK5PZU8b-10" value="Utilisateur" style="swimlane;whiteSpace=wrap;html=1;" vertex="1" parent="1">
          <mxGeometry x="50" y="-330" width="200" height="200" as="geometry" />
        </mxCell>
        <mxCell id="TIo4OESzISVmzK5PZU8b-14" value="pseudo" style="text;html=1;align=center;verticalAlign=middle;resizable=0;points=[];autosize=1;strokeColor=none;fillColor=none;" vertex="1" parent="TIo4OESzISVmzK5PZU8b-10">
          <mxGeometry y="50" width="60" height="30" as="geometry" />
        </mxCell>
        <mxCell id="TIo4OESzISVmzK5PZU8b-17" value="email" style="text;html=1;align=left;verticalAlign=middle;resizable=0;points=[];autosize=1;strokeColor=none;fillColor=none;" vertex="1" parent="TIo4OESzISVmzK5PZU8b-10">
          <mxGeometry x="10" y="72" width="50" height="30" as="geometry" />
        </mxCell>
        <mxCell id="TIo4OESzISVmzK5PZU8b-34" value="id" style="text;html=1;align=left;verticalAlign=middle;resizable=0;points=[];autosize=1;strokeColor=none;fillColor=none;" vertex="1" parent="TIo4OESzISVmzK5PZU8b-10">
          <mxGeometry x="10" y="30" width="30" height="30" as="geometry" />
        </mxCell>
        <mxCell id="TIo4OESzISVmzK5PZU8b-13" style="edgeStyle=orthogonalEdgeStyle;rounded=0;orthogonalLoop=1;jettySize=auto;html=1;exitX=0.5;exitY=1;exitDx=0;exitDy=0;entryX=0.5;entryY=0;entryDx=0;entryDy=0;endArrow=none;endFill=0;" edge="1" parent="1" source="TIo4OESzISVmzK5PZU8b-11" target="TIo4OESzISVmzK5PZU8b-1">
          <mxGeometry relative="1" as="geometry" />
        </mxCell>
        <mxCell id="TIo4OESzISVmzK5PZU8b-30" value="1,1" style="edgeLabel;html=1;align=center;verticalAlign=middle;resizable=0;points=[];" vertex="1" connectable="0" parent="TIo4OESzISVmzK5PZU8b-13">
          <mxGeometry x="0.0214" y="-1" relative="1" as="geometry">
            <mxPoint as="offset" />
          </mxGeometry>
        </mxCell>
        <mxCell id="TIo4OESzISVmzK5PZU8b-11" value="crée" style="swimlane;whiteSpace=wrap;html=1;startSize=40;rounded=1;" vertex="1" parent="1">
          <mxGeometry x="85" y="-90" width="130" height="110" as="geometry" />
        </mxCell>
      </root>
    </mxGraphModel>
  </diagram>
</mxfile>
